# xmcd
#
# Track frame offsets:
#	150
#	23362
#	38700
#	55148
#	70101
#	88889
#	103589
#	119948
#	135231
#	151117
#	170699
#	187785
#	205080
#	221812
#
# Disc length: 3142 seconds
#
# Revision: 1
# Processed by: cddbd v1.5.2PL0 Copyright (c) Steve Scherf et al.
# Submitted via: audiograbber 1.83.01
#
DISCID=ba0c440e
DTITLE=Whiskey - Dance Little Lady
DYEAR=2015
DGENRE=
TTITLE0=Tombstone
TTITLE1=Closer
TTITLE2=Dance Little Lady
TTITLE3=Love Me Just A Little Bit Longer
TTITLE4=The Old Timer
TTITLE5=Somewhere Between
TTITLE6=You Won´t Let Go
TTITLE7=Independence Day
TTITLE8=When I Faound You
TTITLE9=Speed Of The Sound Of Loneliness
TTITLE10=Green Top Mini
TTITLE11=Sleepy Eyes
TTITLE12=Teenage Pensioner
TTITLE13=Talking In Your Sleep
EXTD=
EXTT0=
EXTT1=
EXTT2=
EXTT3=
EXTT4=
EXTT5=
EXTT6=
EXTT7=
EXTT8=
EXTT9=
EXTT10=
EXTT11=
EXTT12=
EXTT13=
PLAYORDER=
